<svg xmlns="http://www.w3.org/2000/svg" viewBox="0 0 360 54"><g fill="none" fill-rule="evenodd"><path fill="#323B3F" d="M0 52.694h8.167V1.01H0zM54.6 1.009v38.393L29.364 1.009h-8.247v51.685h8.1V14.517l25.31 38.177h8.099V1.01zM72.402 1.009v7.388H85.35v44.297h8.173V8.397h12.952V1.009zM117.654 1.009v51.685h26.2v-7.382H125.82V30.1h15.008v-7.308H125.82V8.397h17.291V1.009z"/><path fill="#F15A2A" d="M204.01 38.695c1.405 3.694 4.418 7.308 10.087 7.308 4.633 0 7.719-2.58 7.719-6.939 0-10.928-23.175-8.49-23.175-25.107C198.641 5.91 204.605 0 214.097 0c9.78 0 13.978 6.945 15.23 10.559l-6.775 3.029c-1.172-2.512-3.528-6.058-8.608-6.058-4.56 0-7.136 2.813-7.136 6.353 0 10.19 23.328 8.343 23.328 24.59 0 8.638-6.258 15.133-16.413 15.133-10.523 0-15.082-7.086-16.628-11.667l6.915-3.244zM240.335 1.009h25.458v7.388h-17.291v14.394h15.008v7.314h-15.008v15.207h18.033V52.7h-26.2zM319.217 48.219c-2.577 1.995-8.247 5.387-16.193 5.387-15.603 0-26.488-11.587-26.488-26.8C276.536 11.593 287.87 0 302.957 0c7.283 0 12.578 2.734 15.597 5.024l-2.43 7.234c-2.202-1.7-6.915-4.574-12.946-4.574-10.744 0-18.18 8.416-18.18 19.122 0 10.707 7.215 19.123 18.247 19.123 6.7 0 11.487-3.325 13.542-4.87l2.43 7.16zM338.757 8.397H325.81V1.009h34.066v7.388h-12.953V52.7h-8.166zM178.525 29.508c5.228-2.142 8.388-7.308 8.388-13.292 0-8.638-6.179-15.207-17.217-15.207h-13.83l8.167 16.155V8.17h5.516c5.964 0 8.903 3.25 8.903 8.047 0 5.245-3.75 8.127-8.903 8.127h-1.89l14.333 28.351h9.044l-12.51-23.186z"/><path fill="#323B3F" d="M155.866 52.377h8.167V40.015l-8.167-16.808z"/></g></svg>